<?xml version="1.0" encoding="UTF-8" standalone="no"?>
<!DOCTYPE svg PUBLIC "-//W3C//DTD SVG 1.1//EN"
 "http://www.w3.org/Graphics/SVG/1.1/DTD/svg11.dtd">
<!-- Generated by graphviz version 2.43.0 (0)
 -->
<!-- Title: 20230517092533_dag Pages: 1 -->
<svg width="424pt" height="582pt"
 viewBox="0.00 0.00 423.93 582.00" xmlns="http://www.w3.org/2000/svg" xmlns:xlink="http://www.w3.org/1999/xlink">
<g id="graph0" class="graph" transform="scale(1 1) rotate(0) translate(4 578)">
<title>20230517092533_dag</title>
<polygon fill="white" stroke="transparent" points="-4,4 -4,-578 419.93,-578 419.93,4 -4,4"/>
<!-- p0 -->
<g id="node1" class="node">
<title>p0</title>
<ellipse fill="black" stroke="black" cx="236.59" cy="-555.4" rx="3.6" ry="3.6"/>
<text text-anchor="middle" x="167.99" y="-562.8" font-family="Times,serif" font-size="14.00">Channel.fromPath</text>
</g>
<!-- p1 -->
<g id="node2" class="node">
<title>p1</title>
<ellipse fill="none" stroke="black" cx="236.59" cy="-511.3" rx="3.5" ry="3.5"/>
<text text-anchor="middle" x="217.59" y="-518.6" font-family="Times,serif" font-size="14.00">map</text>
</g>
<!-- p0&#45;&gt;p1 -->
<g id="edge1" class="edge">
<title>p0&#45;&gt;p1</title>
<path fill="none" stroke="black" d="M236.59,-551.64C236.59,-546.35 236.59,-534.48 236.59,-525.15"/>
<polygon fill="black" stroke="black" points="240.09,-525.13 236.59,-515.13 233.09,-525.13 240.09,-525.13"/>
</g>
<!-- p2 -->
<g id="node3" class="node">
<title>p2</title>
<ellipse fill="none" stroke="black" cx="145.59" cy="-438.8" rx="145.67" ry="18"/>
<text text-anchor="middle" x="145.59" y="-435.1" font-family="Times,serif" font-size="14.00">annotation:GENEMARKS_ES</text>
</g>
<!-- p1&#45;&gt;p2 -->
<g id="edge2" class="edge">
<title>p1&#45;&gt;p2</title>
<path fill="none" stroke="black" d="M234.34,-508.56C226.24,-502.29 197.9,-480.33 175.39,-462.89"/>
<polygon fill="black" stroke="black" points="177.46,-460.07 167.41,-456.71 173.17,-465.6 177.46,-460.07"/>
<text text-anchor="middle" x="250.09" y="-478.6" font-family="Times,serif" font-size="14.00">assemblies</text>
</g>
<!-- p3 -->
<g id="node4" class="node">
<title>p3</title>
<ellipse fill="none" stroke="black" cx="236.59" cy="-380.3" rx="3.5" ry="3.5"/>
<text text-anchor="middle" x="219.59" y="-387.6" font-family="Times,serif" font-size="14.00">mix</text>
</g>
<!-- p1&#45;&gt;p3 -->
<g id="edge4" class="edge">
<title>p1&#45;&gt;p3</title>
<path fill="none" stroke="black" d="M240.04,-510.16C250.01,-509.58 279.07,-506.44 293.59,-489.8 303.44,-478.5 299.02,-471.71 300.59,-456.8 302.26,-440.89 308.38,-434.77 300.59,-420.8 289.74,-401.37 264.97,-390.3 249.62,-385.08"/>
<polygon fill="black" stroke="black" points="250.37,-381.64 239.78,-382.09 248.33,-388.34 250.37,-381.64"/>
<text text-anchor="middle" x="343.09" y="-435.1" font-family="Times,serif" font-size="14.00">assemblies</text>
</g>
<!-- p2&#45;&gt;p3 -->
<g id="edge3" class="edge">
<title>p2&#45;&gt;p3</title>
<path fill="none" stroke="black" d="M172.89,-420.85C190.38,-409.99 212.17,-396.46 225.2,-388.37"/>
<polygon fill="black" stroke="black" points="227.41,-391.11 234.06,-382.87 223.72,-385.17 227.41,-391.11"/>
</g>
<!-- p4 -->
<g id="node5" class="node">
<title>p4</title>
<ellipse fill="none" stroke="black" cx="236.59" cy="-336.2" rx="3.5" ry="3.5"/>
<text text-anchor="middle" x="192.09" y="-343.5" font-family="Times,serif" font-size="14.00">groupTuple</text>
</g>
<!-- p3&#45;&gt;p4 -->
<g id="edge5" class="edge">
<title>p3&#45;&gt;p4</title>
<path fill="none" stroke="black" d="M236.59,-376.54C236.59,-371.25 236.59,-359.38 236.59,-350.05"/>
<polygon fill="black" stroke="black" points="240.09,-350.03 236.59,-340.03 233.09,-350.03 240.09,-350.03"/>
</g>
<!-- p7 -->
<g id="node6" class="node">
<title>p7</title>
<ellipse fill="none" stroke="black" cx="299.59" cy="-263.6" rx="116.18" ry="18"/>
<text text-anchor="middle" x="299.59" y="-259.9" font-family="Times,serif" font-size="14.00">annotation:MAKER_R1</text>
</g>
<!-- p4&#45;&gt;p7 -->
<g id="edge6" class="edge">
<title>p4&#45;&gt;p7</title>
<path fill="none" stroke="black" d="M237.49,-332.75C239.81,-326.67 246.44,-310.58 255.59,-299.6 258.94,-295.58 262.81,-291.71 266.85,-288.1"/>
<polygon fill="black" stroke="black" points="269.3,-290.61 274.71,-281.51 264.8,-285.25 269.3,-290.61"/>
<text text-anchor="middle" x="275.59" y="-303.4" font-family="Times,serif" font-size="14.00">r1_ch</text>
</g>
<!-- p8 -->
<g id="node9" class="node">
<title>p8</title>
<ellipse fill="none" stroke="black" cx="299.59" cy="-190.6" rx="107.78" ry="18"/>
<text text-anchor="middle" x="299.59" y="-186.9" font-family="Times,serif" font-size="14.00">annotation:GET_GFF</text>
</g>
<!-- p7&#45;&gt;p8 -->
<g id="edge9" class="edge">
<title>p7&#45;&gt;p8</title>
<path fill="none" stroke="black" d="M299.59,-245.41C299.59,-237.39 299.59,-227.65 299.59,-218.67"/>
<polygon fill="black" stroke="black" points="303.09,-218.63 299.59,-208.63 296.09,-218.63 303.09,-218.63"/>
</g>
<!-- p5 -->
<g id="node7" class="node">
<title>p5</title>
<ellipse fill="black" stroke="black" cx="299.59" cy="-336.2" rx="3.6" ry="3.6"/>
</g>
<!-- p5&#45;&gt;p7 -->
<g id="edge7" class="edge">
<title>p5&#45;&gt;p7</title>
<path fill="none" stroke="black" d="M299.59,-332.52C299.59,-325.85 299.59,-307.9 299.59,-292.13"/>
<polygon fill="black" stroke="black" points="303.09,-291.73 299.59,-281.73 296.09,-291.73 303.09,-291.73"/>
<text text-anchor="middle" x="315.59" y="-303.4" font-family="Times,serif" font-size="14.00">args</text>
</g>
<!-- p6 -->
<g id="node8" class="node">
<title>p6</title>
<ellipse fill="black" stroke="black" cx="354.59" cy="-336.2" rx="3.6" ry="3.6"/>
</g>
<!-- p6&#45;&gt;p7 -->
<g id="edge8" class="edge">
<title>p6&#45;&gt;p7</title>
<path fill="none" stroke="black" d="M353.16,-332.49C349.89,-326.37 341.44,-311.13 332.59,-299.6 329.82,-296 326.75,-292.35 323.61,-288.84"/>
<polygon fill="black" stroke="black" points="326.12,-286.4 316.76,-281.43 320.98,-291.15 326.12,-286.4"/>
<text text-anchor="middle" x="356.59" y="-303.4" font-family="Times,serif" font-size="14.00">first</text>
</g>
<!-- p9 -->
<g id="node10" class="node">
<title>p9</title>
<ellipse fill="black" stroke="black" cx="287.59" cy="-132.1" rx="1.8" ry="1.8"/>
</g>
<!-- p8&#45;&gt;p9 -->
<g id="edge10" class="edge">
<title>p8&#45;&gt;p9</title>
<path fill="none" stroke="black" d="M295.92,-172.34C293.97,-163.14 291.62,-152.1 289.92,-144.07"/>
<polygon fill="black" stroke="black" points="293.3,-143.16 287.8,-134.1 286.45,-144.61 293.3,-143.16"/>
</g>
<!-- p10 -->
<g id="node11" class="node">
<title>p10</title>
<ellipse fill="none" stroke="black" cx="312.59" cy="-132.1" rx="3.5" ry="3.5"/>
<text text-anchor="middle" x="285.59" y="-139.4" font-family="Times,serif" font-size="14.00">flatten</text>
</g>
<!-- p8&#45;&gt;p10 -->
<g id="edge11" class="edge">
<title>p8&#45;&gt;p10</title>
<path fill="none" stroke="black" d="M303.56,-172.34C305.56,-163.65 307.93,-153.32 309.75,-145.44"/>
<polygon fill="black" stroke="black" points="313.17,-146.19 312,-135.66 306.34,-144.62 313.17,-146.19"/>
</g>
<!-- p11 -->
<g id="node12" class="node">
<title>p11</title>
<ellipse fill="none" stroke="black" cx="312.59" cy="-88.1" rx="3.5" ry="3.5"/>
<text text-anchor="middle" x="285.59" y="-95.4" font-family="Times,serif" font-size="14.00">collect</text>
</g>
<!-- p10&#45;&gt;p11 -->
<g id="edge12" class="edge">
<title>p10&#45;&gt;p11</title>
<path fill="none" stroke="black" d="M312.59,-128.34C312.59,-123.07 312.59,-111.23 312.59,-101.92"/>
<polygon fill="black" stroke="black" points="316.09,-101.92 312.59,-91.92 309.09,-101.92 316.09,-101.92"/>
</g>
<!-- p12 -->
<g id="node13" class="node">
<title>p12</title>
<ellipse fill="none" stroke="black" cx="312.59" cy="-44.1" rx="3.5" ry="3.5"/>
<text text-anchor="middle" x="292.09" y="-51.4" font-family="Times,serif" font-size="14.00">view</text>
</g>
<!-- p11&#45;&gt;p12 -->
<g id="edge13" class="edge">
<title>p11&#45;&gt;p12</title>
<path fill="none" stroke="black" d="M312.59,-84.34C312.59,-79.07 312.59,-67.23 312.59,-57.92"/>
<polygon fill="black" stroke="black" points="316.09,-57.92 312.59,-47.92 309.09,-57.92 316.09,-57.92"/>
</g>
<!-- p13 -->
<g id="node14" class="node">
<title>p13</title>
<ellipse fill="black" stroke="black" cx="312.59" cy="-1.8" rx="1.8" ry="1.8"/>
</g>
<!-- p12&#45;&gt;p13 -->
<g id="edge14" class="edge">
<title>p12&#45;&gt;p13</title>
<path fill="none" stroke="black" d="M312.59,-40.46C312.59,-35.25 312.59,-23.38 312.59,-14.35"/>
<polygon fill="black" stroke="black" points="316.09,-14.05 312.59,-4.05 309.09,-14.05 316.09,-14.05"/>
</g>
</g>
</svg>
