<?xml version="1.0" encoding="UTF-8" standalone="no"?>
<!DOCTYPE svg PUBLIC "-//W3C//DTD SVG 1.1//EN"
 "http://www.w3.org/Graphics/SVG/1.1/DTD/svg11.dtd">
<!-- Generated by graphviz version 2.43.0 (0)
 -->
<!-- Title: 20230623062157_dag Pages: 1 -->
<svg width="1381pt" height="216pt"
 viewBox="0.00 0.00 1380.74 216.00" xmlns="http://www.w3.org/2000/svg" xmlns:xlink="http://www.w3.org/1999/xlink">
<g id="graph0" class="graph" transform="scale(1 1) rotate(0) translate(4 212)">
<title>20230623062157_dag</title>
<polygon fill="white" stroke="transparent" points="-4,4 -4,-212 1376.74,-212 1376.74,4 -4,4"/>
<!-- p0 -->
<g id="node1" class="node">
<title>p0</title>
<ellipse fill="black" stroke="black" cx="163.6" cy="-189.4" rx="3.6" ry="3.6"/>
<text text-anchor="middle" x="80" y="-196.8" font-family="Times,serif" font-size="14.00">Channel.fromFilePairs</text>
</g>
<!-- p1 -->
<g id="node2" class="node">
<title>p1</title>
<ellipse fill="black" stroke="black" cx="163.6" cy="-131.2" rx="1.8" ry="1.8"/>
</g>
<!-- p0&#45;&gt;p1 -->
<g id="edge1" class="edge">
<title>p0&#45;&gt;p1</title>
<path fill="none" stroke="black" d="M163.6,-185.69C163.6,-178.22 163.6,-157 163.6,-143.64"/>
<polygon fill="black" stroke="black" points="167.1,-143.25 163.6,-133.25 160.1,-143.25 167.1,-143.25"/>
<text text-anchor="middle" x="189.1" y="-156.6" font-family="Times,serif" font-size="14.00">raw_ch</text>
</g>
<!-- p2 -->
<g id="node3" class="node">
<title>p2</title>
<ellipse fill="black" stroke="black" cx="237.6" cy="-189.4" rx="3.6" ry="3.6"/>
<text text-anchor="middle" x="154" y="-174.6" font-family="Times,serif" font-size="14.00">Channel.fromFilePairs</text>
</g>
<!-- p3 -->
<g id="node4" class="node">
<title>p3</title>
<ellipse fill="black" stroke="black" cx="237.6" cy="-131.2" rx="1.8" ry="1.8"/>
</g>
<!-- p2&#45;&gt;p3 -->
<g id="edge2" class="edge">
<title>p2&#45;&gt;p3</title>
<path fill="none" stroke="black" d="M237.6,-185.69C237.6,-178.22 237.6,-157 237.6,-143.64"/>
<polygon fill="black" stroke="black" points="241.1,-143.25 237.6,-133.25 234.1,-143.25 241.1,-143.25"/>
<text text-anchor="middle" x="261.6" y="-156.6" font-family="Times,serif" font-size="14.00">rna_ch</text>
</g>
<!-- p4 -->
<g id="node5" class="node">
<title>p4</title>
<ellipse fill="black" stroke="black" cx="308.6" cy="-189.4" rx="3.6" ry="3.6"/>
<text text-anchor="middle" x="385" y="-196.8" font-family="Times,serif" font-size="14.00">Channel.fromFilePairs</text>
</g>
<!-- p5 -->
<g id="node6" class="node">
<title>p5</title>
<ellipse fill="black" stroke="black" cx="308.6" cy="-131.2" rx="1.8" ry="1.8"/>
</g>
<!-- p4&#45;&gt;p5 -->
<g id="edge3" class="edge">
<title>p4&#45;&gt;p5</title>
<path fill="none" stroke="black" d="M308.6,-185.69C308.6,-178.22 308.6,-157 308.6,-143.64"/>
<polygon fill="black" stroke="black" points="312.1,-143.25 308.6,-133.25 305.1,-143.25 312.1,-143.25"/>
<text text-anchor="middle" x="339.1" y="-156.6" font-family="Times,serif" font-size="14.00">clean_ch</text>
</g>
<!-- p6 -->
<g id="node7" class="node">
<title>p6</title>
<ellipse fill="black" stroke="black" cx="384.6" cy="-189.4" rx="3.6" ry="3.6"/>
<text text-anchor="middle" x="316" y="-174.6" font-family="Times,serif" font-size="14.00">Channel.fromPath</text>
</g>
<!-- p7 -->
<g id="node8" class="node">
<title>p7</title>
<ellipse fill="none" stroke="black" cx="384.6" cy="-131.2" rx="3.5" ry="3.5"/>
<text text-anchor="middle" x="365.6" y="-138.5" font-family="Times,serif" font-size="14.00">map</text>
</g>
<!-- p6&#45;&gt;p7 -->
<g id="edge4" class="edge">
<title>p6&#45;&gt;p7</title>
<path fill="none" stroke="black" d="M384.6,-185.69C384.6,-178.44 384.6,-158.28 384.6,-144.88"/>
<polygon fill="black" stroke="black" points="388.1,-144.75 384.6,-134.75 381.1,-144.75 388.1,-144.75"/>
</g>
<!-- p8 -->
<g id="node9" class="node">
<title>p8</title>
<ellipse fill="black" stroke="black" cx="384.6" cy="-58.6" rx="1.8" ry="1.8"/>
</g>
<!-- p7&#45;&gt;p8 -->
<g id="edge5" class="edge">
<title>p7&#45;&gt;p8</title>
<path fill="none" stroke="black" d="M384.6,-127.52C384.6,-118.28 384.6,-87.4 384.6,-70.65"/>
<polygon fill="black" stroke="black" points="388.1,-70.56 384.6,-60.56 381.1,-70.56 388.1,-70.56"/>
<text text-anchor="middle" x="424.6" y="-98.4" font-family="Times,serif" font-size="14.00">genome_ch</text>
</g>
<!-- p9 -->
<g id="node10" class="node">
<title>p9</title>
<ellipse fill="black" stroke="black" cx="487.6" cy="-189.4" rx="3.6" ry="3.6"/>
<text text-anchor="middle" x="549" y="-196.8" font-family="Times,serif" font-size="14.00">Channel.fromPath</text>
</g>
<!-- p10 -->
<g id="node11" class="node">
<title>p10</title>
<ellipse fill="none" stroke="black" cx="487.6" cy="-131.2" rx="3.5" ry="3.5"/>
<text text-anchor="middle" x="468.6" y="-138.5" font-family="Times,serif" font-size="14.00">map</text>
</g>
<!-- p9&#45;&gt;p10 -->
<g id="edge6" class="edge">
<title>p9&#45;&gt;p10</title>
<path fill="none" stroke="black" d="M487.6,-185.69C487.6,-178.44 487.6,-158.28 487.6,-144.88"/>
<polygon fill="black" stroke="black" points="491.1,-144.75 487.6,-134.75 484.1,-144.75 491.1,-144.75"/>
</g>
<!-- p11 -->
<g id="node12" class="node">
<title>p11</title>
<ellipse fill="black" stroke="black" cx="487.6" cy="-58.6" rx="1.8" ry="1.8"/>
</g>
<!-- p10&#45;&gt;p11 -->
<g id="edge7" class="edge">
<title>p10&#45;&gt;p11</title>
<path fill="none" stroke="black" d="M487.6,-127.52C487.6,-118.28 487.6,-87.4 487.6,-70.65"/>
<polygon fill="black" stroke="black" points="491.1,-70.56 487.6,-60.56 484.1,-70.56 491.1,-70.56"/>
<text text-anchor="middle" x="525.6" y="-98.4" font-family="Times,serif" font-size="14.00">contigs_ch</text>
</g>
<!-- p12 -->
<g id="node13" class="node">
<title>p12</title>
<ellipse fill="black" stroke="black" cx="586.6" cy="-189.4" rx="3.6" ry="3.6"/>
<text text-anchor="middle" x="518" y="-174.6" font-family="Times,serif" font-size="14.00">Channel.fromPath</text>
</g>
<!-- p13 -->
<g id="node14" class="node">
<title>p13</title>
<ellipse fill="none" stroke="black" cx="586.6" cy="-131.2" rx="3.5" ry="3.5"/>
<text text-anchor="middle" x="559.6" y="-138.5" font-family="Times,serif" font-size="14.00">collect</text>
</g>
<!-- p12&#45;&gt;p13 -->
<g id="edge8" class="edge">
<title>p12&#45;&gt;p13</title>
<path fill="none" stroke="black" d="M586.6,-185.69C586.6,-178.44 586.6,-158.28 586.6,-144.88"/>
<polygon fill="black" stroke="black" points="590.1,-144.75 586.6,-134.75 583.1,-144.75 590.1,-144.75"/>
</g>
<!-- p14 -->
<g id="node15" class="node">
<title>p14</title>
<ellipse fill="black" stroke="black" cx="586.6" cy="-58.6" rx="1.8" ry="1.8"/>
</g>
<!-- p13&#45;&gt;p14 -->
<g id="edge9" class="edge">
<title>p13&#45;&gt;p14</title>
<path fill="none" stroke="black" d="M586.6,-127.52C586.6,-118.28 586.6,-87.4 586.6,-70.65"/>
<polygon fill="black" stroke="black" points="590.1,-70.56 586.6,-60.56 583.1,-70.56 590.1,-70.56"/>
<text text-anchor="middle" x="608.6" y="-98.4" font-family="Times,serif" font-size="14.00">ref_ch</text>
</g>
<!-- p15 -->
<g id="node16" class="node">
<title>p15</title>
<ellipse fill="black" stroke="black" cx="653.6" cy="-189.4" rx="3.6" ry="3.6"/>
<text text-anchor="middle" x="715" y="-196.8" font-family="Times,serif" font-size="14.00">Channel.fromPath</text>
</g>
<!-- p16 -->
<g id="node17" class="node">
<title>p16</title>
<ellipse fill="none" stroke="black" cx="653.6" cy="-131.2" rx="3.5" ry="3.5"/>
<text text-anchor="middle" x="634.6" y="-138.5" font-family="Times,serif" font-size="14.00">map</text>
</g>
<!-- p15&#45;&gt;p16 -->
<g id="edge10" class="edge">
<title>p15&#45;&gt;p16</title>
<path fill="none" stroke="black" d="M653.6,-185.69C653.6,-178.44 653.6,-158.28 653.6,-144.88"/>
<polygon fill="black" stroke="black" points="657.1,-144.75 653.6,-134.75 650.1,-144.75 657.1,-144.75"/>
</g>
<!-- p17 -->
<g id="node18" class="node">
<title>p17</title>
<ellipse fill="black" stroke="black" cx="653.6" cy="-58.6" rx="1.8" ry="1.8"/>
</g>
<!-- p16&#45;&gt;p17 -->
<g id="edge11" class="edge">
<title>p16&#45;&gt;p17</title>
<path fill="none" stroke="black" d="M653.6,-127.52C653.6,-118.28 653.6,-87.4 653.6,-70.65"/>
<polygon fill="black" stroke="black" points="657.1,-70.56 653.6,-60.56 650.1,-70.56 657.1,-70.56"/>
<text text-anchor="middle" x="682.6" y="-98.4" font-family="Times,serif" font-size="14.00">train_ch</text>
</g>
<!-- p18 -->
<g id="node19" class="node">
<title>p18</title>
<ellipse fill="black" stroke="black" cx="734.6" cy="-189.4" rx="3.6" ry="3.6"/>
<text text-anchor="middle" x="666" y="-174.6" font-family="Times,serif" font-size="14.00">Channel.fromPath</text>
</g>
<!-- p19 -->
<g id="node20" class="node">
<title>p19</title>
<ellipse fill="none" stroke="black" cx="734.6" cy="-131.2" rx="3.5" ry="3.5"/>
<text text-anchor="middle" x="715.6" y="-138.5" font-family="Times,serif" font-size="14.00">map</text>
</g>
<!-- p18&#45;&gt;p19 -->
<g id="edge12" class="edge">
<title>p18&#45;&gt;p19</title>
<path fill="none" stroke="black" d="M734.6,-185.69C734.6,-178.44 734.6,-158.28 734.6,-144.88"/>
<polygon fill="black" stroke="black" points="738.1,-144.75 734.6,-134.75 731.1,-144.75 738.1,-144.75"/>
</g>
<!-- p20 -->
<g id="node21" class="node">
<title>p20</title>
<ellipse fill="black" stroke="black" cx="734.6" cy="-58.6" rx="1.8" ry="1.8"/>
</g>
<!-- p19&#45;&gt;p20 -->
<g id="edge13" class="edge">
<title>p19&#45;&gt;p20</title>
<path fill="none" stroke="black" d="M734.6,-127.52C734.6,-118.28 734.6,-87.4 734.6,-70.65"/>
<polygon fill="black" stroke="black" points="738.1,-70.56 734.6,-60.56 731.1,-70.56 738.1,-70.56"/>
<text text-anchor="middle" x="792.1" y="-98.4" font-family="Times,serif" font-size="14.00">chromosome_ch</text>
</g>
<!-- p21 -->
<g id="node22" class="node">
<title>p21</title>
<ellipse fill="black" stroke="black" cx="872.6" cy="-189.4" rx="3.6" ry="3.6"/>
<text text-anchor="middle" x="804" y="-174.6" font-family="Times,serif" font-size="14.00">Channel.fromPath</text>
</g>
<!-- p22 -->
<g id="node23" class="node">
<title>p22</title>
<ellipse fill="none" stroke="black" cx="872.6" cy="-131.2" rx="3.5" ry="3.5"/>
<text text-anchor="middle" x="853.6" y="-138.5" font-family="Times,serif" font-size="14.00">map</text>
</g>
<!-- p21&#45;&gt;p22 -->
<g id="edge14" class="edge">
<title>p21&#45;&gt;p22</title>
<path fill="none" stroke="black" d="M872.6,-185.69C872.6,-178.44 872.6,-158.28 872.6,-144.88"/>
<polygon fill="black" stroke="black" points="876.1,-144.75 872.6,-134.75 869.1,-144.75 876.1,-144.75"/>
</g>
<!-- p23 -->
<g id="node24" class="node">
<title>p23</title>
<ellipse fill="black" stroke="black" cx="872.6" cy="-58.6" rx="1.8" ry="1.8"/>
</g>
<!-- p22&#45;&gt;p23 -->
<g id="edge15" class="edge">
<title>p22&#45;&gt;p23</title>
<path fill="none" stroke="black" d="M872.6,-127.52C872.6,-118.28 872.6,-87.4 872.6,-70.65"/>
<polygon fill="black" stroke="black" points="876.1,-70.56 872.6,-60.56 869.1,-70.56 876.1,-70.56"/>
<text text-anchor="middle" x="912.1" y="-98.4" font-family="Times,serif" font-size="14.00">scaffold_ch</text>
</g>
<!-- p24 -->
<g id="node25" class="node">
<title>p24</title>
<ellipse fill="black" stroke="black" cx="974.6" cy="-189.4" rx="3.6" ry="3.6"/>
<text text-anchor="middle" x="906" y="-196.8" font-family="Times,serif" font-size="14.00">Channel.fromPath</text>
</g>
<!-- p25 -->
<g id="node26" class="node">
<title>p25</title>
<ellipse fill="none" stroke="black" cx="974.6" cy="-131.2" rx="3.5" ry="3.5"/>
<text text-anchor="middle" x="955.6" y="-138.5" font-family="Times,serif" font-size="14.00">map</text>
</g>
<!-- p24&#45;&gt;p25 -->
<g id="edge16" class="edge">
<title>p24&#45;&gt;p25</title>
<path fill="none" stroke="black" d="M974.6,-185.69C974.6,-178.44 974.6,-158.28 974.6,-144.88"/>
<polygon fill="black" stroke="black" points="978.1,-144.75 974.6,-134.75 971.1,-144.75 978.1,-144.75"/>
</g>
<!-- p26 -->
<g id="node27" class="node">
<title>p26</title>
<ellipse fill="black" stroke="black" cx="974.6" cy="-58.6" rx="1.8" ry="1.8"/>
</g>
<!-- p25&#45;&gt;p26 -->
<g id="edge17" class="edge">
<title>p25&#45;&gt;p26</title>
<path fill="none" stroke="black" d="M974.6,-127.52C974.6,-118.28 974.6,-87.4 974.6,-70.65"/>
<polygon fill="black" stroke="black" points="978.1,-70.56 974.6,-60.56 971.1,-70.56 978.1,-70.56"/>
<text text-anchor="middle" x="1035.1" y="-98.4" font-family="Times,serif" font-size="14.00">busco_results_ch</text>
</g>
<!-- p27 -->
<g id="node28" class="node">
<title>p27</title>
<ellipse fill="black" stroke="black" cx="1007.6" cy="-189.4" rx="3.6" ry="3.6"/>
<text text-anchor="middle" x="939" y="-174.6" font-family="Times,serif" font-size="14.00">Channel.fromPath</text>
</g>
<!-- p28 -->
<g id="node29" class="node">
<title>p28</title>
<ellipse fill="black" stroke="black" cx="1007.6" cy="-131.2" rx="1.8" ry="1.8"/>
</g>
<!-- p27&#45;&gt;p28 -->
<g id="edge18" class="edge">
<title>p27&#45;&gt;p28</title>
<path fill="none" stroke="black" d="M1007.6,-185.69C1007.6,-178.22 1007.6,-157 1007.6,-143.64"/>
<polygon fill="black" stroke="black" points="1011.1,-143.25 1007.6,-133.25 1004.1,-143.25 1011.1,-143.25"/>
<text text-anchor="middle" x="1041.1" y="-156.6" font-family="Times,serif" font-size="14.00">vc_ref_ch</text>
</g>
<!-- p29 -->
<g id="node30" class="node">
<title>p29</title>
<ellipse fill="black" stroke="black" cx="1097.6" cy="-189.4" rx="3.6" ry="3.6"/>
<text text-anchor="middle" x="1174" y="-196.8" font-family="Times,serif" font-size="14.00">Channel.fromFilePairs</text>
</g>
<!-- p30 -->
<g id="node31" class="node">
<title>p30</title>
<ellipse fill="black" stroke="black" cx="1097.6" cy="-131.2" rx="1.8" ry="1.8"/>
</g>
<!-- p29&#45;&gt;p30 -->
<g id="edge19" class="edge">
<title>p29&#45;&gt;p30</title>
<path fill="none" stroke="black" d="M1097.6,-185.69C1097.6,-178.22 1097.6,-157 1097.6,-143.64"/>
<polygon fill="black" stroke="black" points="1101.1,-143.25 1097.6,-133.25 1094.1,-143.25 1101.1,-143.25"/>
<text text-anchor="middle" x="1145.1" y="-156.6" font-family="Times,serif" font-size="14.00">call_reads_ch</text>
</g>
<!-- p31 -->
<g id="node32" class="node">
<title>p31</title>
<ellipse fill="black" stroke="black" cx="1215.6" cy="-189.4" rx="3.6" ry="3.6"/>
<text text-anchor="middle" x="1147" y="-174.6" font-family="Times,serif" font-size="14.00">Channel.fromPath</text>
</g>
<!-- p32 -->
<g id="node33" class="node">
<title>p32</title>
<ellipse fill="none" stroke="black" cx="1215.6" cy="-131.2" rx="3.5" ry="3.5"/>
<text text-anchor="middle" x="1196.6" y="-138.5" font-family="Times,serif" font-size="14.00">map</text>
</g>
<!-- p31&#45;&gt;p32 -->
<g id="edge20" class="edge">
<title>p31&#45;&gt;p32</title>
<path fill="none" stroke="black" d="M1215.6,-185.69C1215.6,-178.44 1215.6,-158.28 1215.6,-144.88"/>
<polygon fill="black" stroke="black" points="1219.1,-144.75 1215.6,-134.75 1212.1,-144.75 1219.1,-144.75"/>
<text text-anchor="middle" x="1261.6" y="-156.6" font-family="Times,serif" font-size="14.00">extracted_ch</text>
</g>
<!-- p35 -->
<g id="node34" class="node">
<title>p35</title>
<ellipse fill="none" stroke="black" cx="1248.6" cy="-58.6" rx="124.28" ry="18"/>
<text text-anchor="middle" x="1248.6" y="-54.9" font-family="Times,serif" font-size="14.00">assess_scaffolds:BUSCO</text>
</g>
<!-- p32&#45;&gt;p35 -->
<g id="edge21" class="edge">
<title>p32&#45;&gt;p35</title>
<path fill="none" stroke="black" d="M1216.7,-127.85C1219.76,-121.29 1228.7,-102.18 1236.33,-85.85"/>
<polygon fill="black" stroke="black" points="1239.56,-87.21 1240.62,-76.67 1233.22,-84.24 1239.56,-87.21"/>
</g>
<!-- p36 -->
<g id="node37" class="node">
<title>p36</title>
<ellipse fill="black" stroke="black" cx="1248.6" cy="-1.8" rx="1.8" ry="1.8"/>
</g>
<!-- p35&#45;&gt;p36 -->
<g id="edge24" class="edge">
<title>p35&#45;&gt;p36</title>
<path fill="none" stroke="black" d="M1248.6,-40.56C1248.6,-31.87 1248.6,-21.56 1248.6,-13.9"/>
<polygon fill="black" stroke="black" points="1252.1,-13.76 1248.6,-3.76 1245.1,-13.76 1252.1,-13.76"/>
</g>
<!-- p33 -->
<g id="node35" class="node">
<title>p33</title>
<ellipse fill="black" stroke="black" cx="1248.6" cy="-131.2" rx="3.6" ry="3.6"/>
</g>
<!-- p33&#45;&gt;p35 -->
<g id="edge22" class="edge">
<title>p33&#45;&gt;p35</title>
<path fill="none" stroke="black" d="M1248.6,-127.52C1248.6,-120.85 1248.6,-102.9 1248.6,-87.13"/>
<polygon fill="black" stroke="black" points="1252.1,-86.73 1248.6,-76.73 1245.1,-86.73 1252.1,-86.73"/>
<text text-anchor="middle" x="1268.6" y="-98.4" font-family="Times,serif" font-size="14.00">mode</text>
</g>
<!-- p34 -->
<g id="node36" class="node">
<title>p34</title>
<ellipse fill="black" stroke="black" cx="1311.6" cy="-131.2" rx="3.6" ry="3.6"/>
</g>
<!-- p34&#45;&gt;p35 -->
<g id="edge23" class="edge">
<title>p34&#45;&gt;p35</title>
<path fill="none" stroke="black" d="M1310.44,-127.78C1307.49,-121.78 1299.25,-105.85 1289.6,-94.6 1286.26,-90.7 1282.47,-86.87 1278.57,-83.25"/>
<polygon fill="black" stroke="black" points="1280.85,-80.6 1271.04,-76.6 1276.22,-85.84 1280.85,-80.6"/>
<text text-anchor="middle" x="1322.6" y="-98.4" font-family="Times,serif" font-size="14.00">outdir</text>
</g>
</g>
</svg>
