<?xml version="1.0" encoding="UTF-8" standalone="no"?>
<!DOCTYPE svg PUBLIC "-//W3C//DTD SVG 1.1//EN"
 "http://www.w3.org/Graphics/SVG/1.1/DTD/svg11.dtd">
<!-- Generated by graphviz version 2.43.0 (0)
 -->
<!-- Title: 20230517091646_dag Pages: 1 -->
<svg width="424pt" height="450pt"
 viewBox="0.00 0.00 423.93 450.00" xmlns="http://www.w3.org/2000/svg" xmlns:xlink="http://www.w3.org/1999/xlink">
<g id="graph0" class="graph" transform="scale(1 1) rotate(0) translate(4 446)">
<title>20230517091646_dag</title>
<polygon fill="white" stroke="transparent" points="-4,4 -4,-446 419.93,-446 419.93,4 -4,4"/>
<!-- p0 -->
<g id="node1" class="node">
<title>p0</title>
<ellipse fill="black" stroke="black" cx="236.59" cy="-423.4" rx="3.6" ry="3.6"/>
<text text-anchor="middle" x="167.99" y="-430.8" font-family="Times,serif" font-size="14.00">Channel.fromPath</text>
</g>
<!-- p1 -->
<g id="node2" class="node">
<title>p1</title>
<ellipse fill="none" stroke="black" cx="236.59" cy="-379.3" rx="3.5" ry="3.5"/>
<text text-anchor="middle" x="217.59" y="-386.6" font-family="Times,serif" font-size="14.00">map</text>
</g>
<!-- p0&#45;&gt;p1 -->
<g id="edge1" class="edge">
<title>p0&#45;&gt;p1</title>
<path fill="none" stroke="black" d="M236.59,-419.64C236.59,-414.35 236.59,-402.48 236.59,-393.15"/>
<polygon fill="black" stroke="black" points="240.09,-393.13 236.59,-383.13 233.09,-393.13 240.09,-393.13"/>
</g>
<!-- p2 -->
<g id="node3" class="node">
<title>p2</title>
<ellipse fill="none" stroke="black" cx="145.59" cy="-306.8" rx="145.67" ry="18"/>
<text text-anchor="middle" x="145.59" y="-303.1" font-family="Times,serif" font-size="14.00">annotation:GENEMARKS_ES</text>
</g>
<!-- p1&#45;&gt;p2 -->
<g id="edge2" class="edge">
<title>p1&#45;&gt;p2</title>
<path fill="none" stroke="black" d="M234.34,-376.56C226.24,-370.29 197.9,-348.33 175.39,-330.89"/>
<polygon fill="black" stroke="black" points="177.46,-328.07 167.41,-324.71 173.17,-333.6 177.46,-328.07"/>
<text text-anchor="middle" x="250.09" y="-346.6" font-family="Times,serif" font-size="14.00">assemblies</text>
</g>
<!-- p3 -->
<g id="node4" class="node">
<title>p3</title>
<ellipse fill="none" stroke="black" cx="236.59" cy="-248.3" rx="3.5" ry="3.5"/>
<text text-anchor="middle" x="219.59" y="-255.6" font-family="Times,serif" font-size="14.00">mix</text>
</g>
<!-- p1&#45;&gt;p3 -->
<g id="edge4" class="edge">
<title>p1&#45;&gt;p3</title>
<path fill="none" stroke="black" d="M240.04,-378.16C250.01,-377.58 279.07,-374.44 293.59,-357.8 303.44,-346.5 299.02,-339.71 300.59,-324.8 302.26,-308.89 308.38,-302.77 300.59,-288.8 289.74,-269.37 264.97,-258.3 249.62,-253.08"/>
<polygon fill="black" stroke="black" points="250.37,-249.64 239.78,-250.09 248.33,-256.34 250.37,-249.64"/>
<text text-anchor="middle" x="343.09" y="-303.1" font-family="Times,serif" font-size="14.00">assemblies</text>
</g>
<!-- p2&#45;&gt;p3 -->
<g id="edge3" class="edge">
<title>p2&#45;&gt;p3</title>
<path fill="none" stroke="black" d="M172.89,-288.85C190.38,-277.99 212.17,-264.46 225.2,-256.37"/>
<polygon fill="black" stroke="black" points="227.41,-259.11 234.06,-250.87 223.72,-253.17 227.41,-259.11"/>
</g>
<!-- p4 -->
<g id="node5" class="node">
<title>p4</title>
<ellipse fill="none" stroke="black" cx="236.59" cy="-204.2" rx="3.5" ry="3.5"/>
<text text-anchor="middle" x="192.09" y="-211.5" font-family="Times,serif" font-size="14.00">groupTuple</text>
</g>
<!-- p3&#45;&gt;p4 -->
<g id="edge5" class="edge">
<title>p3&#45;&gt;p4</title>
<path fill="none" stroke="black" d="M236.59,-244.54C236.59,-239.25 236.59,-227.38 236.59,-218.05"/>
<polygon fill="black" stroke="black" points="240.09,-218.03 236.59,-208.03 233.09,-218.03 240.09,-218.03"/>
</g>
<!-- p7 -->
<g id="node6" class="node">
<title>p7</title>
<ellipse fill="none" stroke="black" cx="299.59" cy="-131.6" rx="116.18" ry="18"/>
<text text-anchor="middle" x="299.59" y="-127.9" font-family="Times,serif" font-size="14.00">annotation:MAKER_R1</text>
</g>
<!-- p4&#45;&gt;p7 -->
<g id="edge6" class="edge">
<title>p4&#45;&gt;p7</title>
<path fill="none" stroke="black" d="M237.49,-200.75C239.81,-194.67 246.44,-178.58 255.59,-167.6 258.94,-163.58 262.81,-159.71 266.85,-156.1"/>
<polygon fill="black" stroke="black" points="269.3,-158.61 274.71,-149.51 264.8,-153.25 269.3,-158.61"/>
<text text-anchor="middle" x="275.59" y="-171.4" font-family="Times,serif" font-size="14.00">r1_ch</text>
</g>
<!-- p8 -->
<g id="node9" class="node">
<title>p8</title>
<ellipse fill="none" stroke="black" cx="299.59" cy="-58.6" rx="107.78" ry="18"/>
<text text-anchor="middle" x="299.59" y="-54.9" font-family="Times,serif" font-size="14.00">annotation:GET_GFF</text>
</g>
<!-- p7&#45;&gt;p8 -->
<g id="edge9" class="edge">
<title>p7&#45;&gt;p8</title>
<path fill="none" stroke="black" d="M299.59,-113.41C299.59,-105.39 299.59,-95.65 299.59,-86.67"/>
<polygon fill="black" stroke="black" points="303.09,-86.63 299.59,-76.63 296.09,-86.63 303.09,-86.63"/>
</g>
<!-- p5 -->
<g id="node7" class="node">
<title>p5</title>
<ellipse fill="black" stroke="black" cx="299.59" cy="-204.2" rx="3.6" ry="3.6"/>
</g>
<!-- p5&#45;&gt;p7 -->
<g id="edge7" class="edge">
<title>p5&#45;&gt;p7</title>
<path fill="none" stroke="black" d="M299.59,-200.52C299.59,-193.85 299.59,-175.9 299.59,-160.13"/>
<polygon fill="black" stroke="black" points="303.09,-159.73 299.59,-149.73 296.09,-159.73 303.09,-159.73"/>
<text text-anchor="middle" x="315.59" y="-171.4" font-family="Times,serif" font-size="14.00">args</text>
</g>
<!-- p6 -->
<g id="node8" class="node">
<title>p6</title>
<ellipse fill="black" stroke="black" cx="354.59" cy="-204.2" rx="3.6" ry="3.6"/>
</g>
<!-- p6&#45;&gt;p7 -->
<g id="edge8" class="edge">
<title>p6&#45;&gt;p7</title>
<path fill="none" stroke="black" d="M353.16,-200.49C349.89,-194.37 341.44,-179.13 332.59,-167.6 329.82,-164 326.75,-160.35 323.61,-156.84"/>
<polygon fill="black" stroke="black" points="326.12,-154.4 316.76,-149.43 320.98,-159.15 326.12,-154.4"/>
<text text-anchor="middle" x="356.59" y="-171.4" font-family="Times,serif" font-size="14.00">first</text>
</g>
<!-- p10 -->
<g id="node10" class="node">
<title>p10</title>
<ellipse fill="black" stroke="black" cx="287.59" cy="-1.8" rx="1.8" ry="1.8"/>
</g>
<!-- p8&#45;&gt;p10 -->
<g id="edge10" class="edge">
<title>p8&#45;&gt;p10</title>
<path fill="none" stroke="black" d="M295.86,-40.56C293.93,-31.76 291.64,-21.3 289.96,-13.61"/>
<polygon fill="black" stroke="black" points="293.36,-12.78 287.8,-3.76 286.52,-14.28 293.36,-12.78"/>
</g>
<!-- p9 -->
<g id="node11" class="node">
<title>p9</title>
<ellipse fill="black" stroke="black" cx="312.59" cy="-1.8" rx="1.8" ry="1.8"/>
</g>
<!-- p8&#45;&gt;p9 -->
<g id="edge11" class="edge">
<title>p8&#45;&gt;p9</title>
<path fill="none" stroke="black" d="M303.63,-40.56C305.72,-31.76 308.2,-21.3 310.02,-13.61"/>
<polygon fill="black" stroke="black" points="313.46,-14.3 312.36,-3.76 306.64,-12.68 313.46,-14.3"/>
</g>
</g>
</svg>
