<?xml version="1.0" encoding="UTF-8" standalone="no"?>
<!DOCTYPE svg PUBLIC "-//W3C//DTD SVG 1.1//EN"
 "http://www.w3.org/Graphics/SVG/1.1/DTD/svg11.dtd">
<!-- Generated by graphviz version 2.43.0 (0)
 -->
<!-- Title: 20230517092511_dag Pages: 1 -->
<svg width="424pt" height="538pt"
 viewBox="0.00 0.00 423.93 538.00" xmlns="http://www.w3.org/2000/svg" xmlns:xlink="http://www.w3.org/1999/xlink">
<g id="graph0" class="graph" transform="scale(1 1) rotate(0) translate(4 534)">
<title>20230517092511_dag</title>
<polygon fill="white" stroke="transparent" points="-4,4 -4,-534 419.93,-534 419.93,4 -4,4"/>
<!-- p0 -->
<g id="node1" class="node">
<title>p0</title>
<ellipse fill="black" stroke="black" cx="236.59" cy="-511.4" rx="3.6" ry="3.6"/>
<text text-anchor="middle" x="167.99" y="-518.8" font-family="Times,serif" font-size="14.00">Channel.fromPath</text>
</g>
<!-- p1 -->
<g id="node2" class="node">
<title>p1</title>
<ellipse fill="none" stroke="black" cx="236.59" cy="-467.3" rx="3.5" ry="3.5"/>
<text text-anchor="middle" x="217.59" y="-474.6" font-family="Times,serif" font-size="14.00">map</text>
</g>
<!-- p0&#45;&gt;p1 -->
<g id="edge1" class="edge">
<title>p0&#45;&gt;p1</title>
<path fill="none" stroke="black" d="M236.59,-507.64C236.59,-502.35 236.59,-490.48 236.59,-481.15"/>
<polygon fill="black" stroke="black" points="240.09,-481.13 236.59,-471.13 233.09,-481.13 240.09,-481.13"/>
</g>
<!-- p2 -->
<g id="node3" class="node">
<title>p2</title>
<ellipse fill="none" stroke="black" cx="145.59" cy="-394.8" rx="145.67" ry="18"/>
<text text-anchor="middle" x="145.59" y="-391.1" font-family="Times,serif" font-size="14.00">annotation:GENEMARKS_ES</text>
</g>
<!-- p1&#45;&gt;p2 -->
<g id="edge2" class="edge">
<title>p1&#45;&gt;p2</title>
<path fill="none" stroke="black" d="M234.34,-464.56C226.24,-458.29 197.9,-436.33 175.39,-418.89"/>
<polygon fill="black" stroke="black" points="177.46,-416.07 167.41,-412.71 173.17,-421.6 177.46,-416.07"/>
<text text-anchor="middle" x="250.09" y="-434.6" font-family="Times,serif" font-size="14.00">assemblies</text>
</g>
<!-- p3 -->
<g id="node4" class="node">
<title>p3</title>
<ellipse fill="none" stroke="black" cx="236.59" cy="-336.3" rx="3.5" ry="3.5"/>
<text text-anchor="middle" x="219.59" y="-343.6" font-family="Times,serif" font-size="14.00">mix</text>
</g>
<!-- p1&#45;&gt;p3 -->
<g id="edge4" class="edge">
<title>p1&#45;&gt;p3</title>
<path fill="none" stroke="black" d="M240.04,-466.16C250.01,-465.58 279.07,-462.44 293.59,-445.8 303.44,-434.5 299.02,-427.71 300.59,-412.8 302.26,-396.89 308.38,-390.77 300.59,-376.8 289.74,-357.37 264.97,-346.3 249.62,-341.08"/>
<polygon fill="black" stroke="black" points="250.37,-337.64 239.78,-338.09 248.33,-344.34 250.37,-337.64"/>
<text text-anchor="middle" x="343.09" y="-391.1" font-family="Times,serif" font-size="14.00">assemblies</text>
</g>
<!-- p2&#45;&gt;p3 -->
<g id="edge3" class="edge">
<title>p2&#45;&gt;p3</title>
<path fill="none" stroke="black" d="M172.89,-376.85C190.38,-365.99 212.17,-352.46 225.2,-344.37"/>
<polygon fill="black" stroke="black" points="227.41,-347.11 234.06,-338.87 223.72,-341.17 227.41,-347.11"/>
</g>
<!-- p4 -->
<g id="node5" class="node">
<title>p4</title>
<ellipse fill="none" stroke="black" cx="236.59" cy="-292.2" rx="3.5" ry="3.5"/>
<text text-anchor="middle" x="192.09" y="-299.5" font-family="Times,serif" font-size="14.00">groupTuple</text>
</g>
<!-- p3&#45;&gt;p4 -->
<g id="edge5" class="edge">
<title>p3&#45;&gt;p4</title>
<path fill="none" stroke="black" d="M236.59,-332.54C236.59,-327.25 236.59,-315.38 236.59,-306.05"/>
<polygon fill="black" stroke="black" points="240.09,-306.03 236.59,-296.03 233.09,-306.03 240.09,-306.03"/>
</g>
<!-- p7 -->
<g id="node6" class="node">
<title>p7</title>
<ellipse fill="none" stroke="black" cx="299.59" cy="-219.6" rx="116.18" ry="18"/>
<text text-anchor="middle" x="299.59" y="-215.9" font-family="Times,serif" font-size="14.00">annotation:MAKER_R1</text>
</g>
<!-- p4&#45;&gt;p7 -->
<g id="edge6" class="edge">
<title>p4&#45;&gt;p7</title>
<path fill="none" stroke="black" d="M237.49,-288.75C239.81,-282.67 246.44,-266.58 255.59,-255.6 258.94,-251.58 262.81,-247.71 266.85,-244.1"/>
<polygon fill="black" stroke="black" points="269.3,-246.61 274.71,-237.51 264.8,-241.25 269.3,-246.61"/>
<text text-anchor="middle" x="275.59" y="-259.4" font-family="Times,serif" font-size="14.00">r1_ch</text>
</g>
<!-- p8 -->
<g id="node9" class="node">
<title>p8</title>
<ellipse fill="none" stroke="black" cx="299.59" cy="-146.6" rx="107.78" ry="18"/>
<text text-anchor="middle" x="299.59" y="-142.9" font-family="Times,serif" font-size="14.00">annotation:GET_GFF</text>
</g>
<!-- p7&#45;&gt;p8 -->
<g id="edge9" class="edge">
<title>p7&#45;&gt;p8</title>
<path fill="none" stroke="black" d="M299.59,-201.41C299.59,-193.39 299.59,-183.65 299.59,-174.67"/>
<polygon fill="black" stroke="black" points="303.09,-174.63 299.59,-164.63 296.09,-174.63 303.09,-174.63"/>
</g>
<!-- p5 -->
<g id="node7" class="node">
<title>p5</title>
<ellipse fill="black" stroke="black" cx="299.59" cy="-292.2" rx="3.6" ry="3.6"/>
</g>
<!-- p5&#45;&gt;p7 -->
<g id="edge7" class="edge">
<title>p5&#45;&gt;p7</title>
<path fill="none" stroke="black" d="M299.59,-288.52C299.59,-281.85 299.59,-263.9 299.59,-248.13"/>
<polygon fill="black" stroke="black" points="303.09,-247.73 299.59,-237.73 296.09,-247.73 303.09,-247.73"/>
<text text-anchor="middle" x="315.59" y="-259.4" font-family="Times,serif" font-size="14.00">args</text>
</g>
<!-- p6 -->
<g id="node8" class="node">
<title>p6</title>
<ellipse fill="black" stroke="black" cx="354.59" cy="-292.2" rx="3.6" ry="3.6"/>
</g>
<!-- p6&#45;&gt;p7 -->
<g id="edge8" class="edge">
<title>p6&#45;&gt;p7</title>
<path fill="none" stroke="black" d="M353.16,-288.49C349.89,-282.37 341.44,-267.13 332.59,-255.6 329.82,-252 326.75,-248.35 323.61,-244.84"/>
<polygon fill="black" stroke="black" points="326.12,-242.4 316.76,-237.43 320.98,-247.15 326.12,-242.4"/>
<text text-anchor="middle" x="356.59" y="-259.4" font-family="Times,serif" font-size="14.00">first</text>
</g>
<!-- p9 -->
<g id="node10" class="node">
<title>p9</title>
<ellipse fill="black" stroke="black" cx="287.59" cy="-88.1" rx="1.8" ry="1.8"/>
</g>
<!-- p8&#45;&gt;p9 -->
<g id="edge10" class="edge">
<title>p8&#45;&gt;p9</title>
<path fill="none" stroke="black" d="M295.92,-128.34C293.97,-119.14 291.62,-108.1 289.92,-100.07"/>
<polygon fill="black" stroke="black" points="293.3,-99.16 287.8,-90.1 286.45,-100.61 293.3,-99.16"/>
</g>
<!-- p10 -->
<g id="node11" class="node">
<title>p10</title>
<ellipse fill="none" stroke="black" cx="312.59" cy="-88.1" rx="3.5" ry="3.5"/>
<text text-anchor="middle" x="285.59" y="-95.4" font-family="Times,serif" font-size="14.00">flatten</text>
</g>
<!-- p8&#45;&gt;p10 -->
<g id="edge11" class="edge">
<title>p8&#45;&gt;p10</title>
<path fill="none" stroke="black" d="M303.56,-128.34C305.56,-119.65 307.93,-109.32 309.75,-101.44"/>
<polygon fill="black" stroke="black" points="313.17,-102.19 312,-91.66 306.34,-100.62 313.17,-102.19"/>
</g>
<!-- p11 -->
<g id="node12" class="node">
<title>p11</title>
<ellipse fill="none" stroke="black" cx="312.59" cy="-44.1" rx="3.5" ry="3.5"/>
<text text-anchor="middle" x="292.09" y="-51.4" font-family="Times,serif" font-size="14.00">view</text>
</g>
<!-- p10&#45;&gt;p11 -->
<g id="edge12" class="edge">
<title>p10&#45;&gt;p11</title>
<path fill="none" stroke="black" d="M312.59,-84.34C312.59,-79.07 312.59,-67.23 312.59,-57.92"/>
<polygon fill="black" stroke="black" points="316.09,-57.92 312.59,-47.92 309.09,-57.92 316.09,-57.92"/>
</g>
<!-- p12 -->
<g id="node13" class="node">
<title>p12</title>
<ellipse fill="black" stroke="black" cx="312.59" cy="-1.8" rx="1.8" ry="1.8"/>
</g>
<!-- p11&#45;&gt;p12 -->
<g id="edge13" class="edge">
<title>p11&#45;&gt;p12</title>
<path fill="none" stroke="black" d="M312.59,-40.46C312.59,-35.25 312.59,-23.38 312.59,-14.35"/>
<polygon fill="black" stroke="black" points="316.09,-14.05 312.59,-4.05 309.09,-14.05 316.09,-14.05"/>
</g>
</g>
</svg>
