<?xml version="1.0" encoding="UTF-8" standalone="no"?>
<!DOCTYPE svg PUBLIC "-//W3C//DTD SVG 1.1//EN"
 "http://www.w3.org/Graphics/SVG/1.1/DTD/svg11.dtd">
<!-- Generated by graphviz version 2.43.0 (0)
 -->
<!-- Title: 20230517092420_dag Pages: 1 -->
<svg width="424pt" height="494pt"
 viewBox="0.00 0.00 423.93 494.00" xmlns="http://www.w3.org/2000/svg" xmlns:xlink="http://www.w3.org/1999/xlink">
<g id="graph0" class="graph" transform="scale(1 1) rotate(0) translate(4 490)">
<title>20230517092420_dag</title>
<polygon fill="white" stroke="transparent" points="-4,4 -4,-490 419.93,-490 419.93,4 -4,4"/>
<!-- p0 -->
<g id="node1" class="node">
<title>p0</title>
<ellipse fill="black" stroke="black" cx="236.59" cy="-467.4" rx="3.6" ry="3.6"/>
<text text-anchor="middle" x="167.99" y="-474.8" font-family="Times,serif" font-size="14.00">Channel.fromPath</text>
</g>
<!-- p1 -->
<g id="node2" class="node">
<title>p1</title>
<ellipse fill="none" stroke="black" cx="236.59" cy="-423.3" rx="3.5" ry="3.5"/>
<text text-anchor="middle" x="217.59" y="-430.6" font-family="Times,serif" font-size="14.00">map</text>
</g>
<!-- p0&#45;&gt;p1 -->
<g id="edge1" class="edge">
<title>p0&#45;&gt;p1</title>
<path fill="none" stroke="black" d="M236.59,-463.64C236.59,-458.35 236.59,-446.48 236.59,-437.15"/>
<polygon fill="black" stroke="black" points="240.09,-437.13 236.59,-427.13 233.09,-437.13 240.09,-437.13"/>
</g>
<!-- p2 -->
<g id="node3" class="node">
<title>p2</title>
<ellipse fill="none" stroke="black" cx="145.59" cy="-350.8" rx="145.67" ry="18"/>
<text text-anchor="middle" x="145.59" y="-347.1" font-family="Times,serif" font-size="14.00">annotation:GENEMARKS_ES</text>
</g>
<!-- p1&#45;&gt;p2 -->
<g id="edge2" class="edge">
<title>p1&#45;&gt;p2</title>
<path fill="none" stroke="black" d="M234.34,-420.56C226.24,-414.29 197.9,-392.33 175.39,-374.89"/>
<polygon fill="black" stroke="black" points="177.46,-372.07 167.41,-368.71 173.17,-377.6 177.46,-372.07"/>
<text text-anchor="middle" x="250.09" y="-390.6" font-family="Times,serif" font-size="14.00">assemblies</text>
</g>
<!-- p3 -->
<g id="node4" class="node">
<title>p3</title>
<ellipse fill="none" stroke="black" cx="236.59" cy="-292.3" rx="3.5" ry="3.5"/>
<text text-anchor="middle" x="219.59" y="-299.6" font-family="Times,serif" font-size="14.00">mix</text>
</g>
<!-- p1&#45;&gt;p3 -->
<g id="edge4" class="edge">
<title>p1&#45;&gt;p3</title>
<path fill="none" stroke="black" d="M240.04,-422.16C250.01,-421.58 279.07,-418.44 293.59,-401.8 303.44,-390.5 299.02,-383.71 300.59,-368.8 302.26,-352.89 308.38,-346.77 300.59,-332.8 289.74,-313.37 264.97,-302.3 249.62,-297.08"/>
<polygon fill="black" stroke="black" points="250.37,-293.64 239.78,-294.09 248.33,-300.34 250.37,-293.64"/>
<text text-anchor="middle" x="343.09" y="-347.1" font-family="Times,serif" font-size="14.00">assemblies</text>
</g>
<!-- p2&#45;&gt;p3 -->
<g id="edge3" class="edge">
<title>p2&#45;&gt;p3</title>
<path fill="none" stroke="black" d="M172.89,-332.85C190.38,-321.99 212.17,-308.46 225.2,-300.37"/>
<polygon fill="black" stroke="black" points="227.41,-303.11 234.06,-294.87 223.72,-297.17 227.41,-303.11"/>
</g>
<!-- p4 -->
<g id="node5" class="node">
<title>p4</title>
<ellipse fill="none" stroke="black" cx="236.59" cy="-248.2" rx="3.5" ry="3.5"/>
<text text-anchor="middle" x="192.09" y="-255.5" font-family="Times,serif" font-size="14.00">groupTuple</text>
</g>
<!-- p3&#45;&gt;p4 -->
<g id="edge5" class="edge">
<title>p3&#45;&gt;p4</title>
<path fill="none" stroke="black" d="M236.59,-288.54C236.59,-283.25 236.59,-271.38 236.59,-262.05"/>
<polygon fill="black" stroke="black" points="240.09,-262.03 236.59,-252.03 233.09,-262.03 240.09,-262.03"/>
</g>
<!-- p7 -->
<g id="node6" class="node">
<title>p7</title>
<ellipse fill="none" stroke="black" cx="299.59" cy="-175.6" rx="116.18" ry="18"/>
<text text-anchor="middle" x="299.59" y="-171.9" font-family="Times,serif" font-size="14.00">annotation:MAKER_R1</text>
</g>
<!-- p4&#45;&gt;p7 -->
<g id="edge6" class="edge">
<title>p4&#45;&gt;p7</title>
<path fill="none" stroke="black" d="M237.49,-244.75C239.81,-238.67 246.44,-222.58 255.59,-211.6 258.94,-207.58 262.81,-203.71 266.85,-200.1"/>
<polygon fill="black" stroke="black" points="269.3,-202.61 274.71,-193.51 264.8,-197.25 269.3,-202.61"/>
<text text-anchor="middle" x="275.59" y="-215.4" font-family="Times,serif" font-size="14.00">r1_ch</text>
</g>
<!-- p8 -->
<g id="node9" class="node">
<title>p8</title>
<ellipse fill="none" stroke="black" cx="299.59" cy="-102.6" rx="107.78" ry="18"/>
<text text-anchor="middle" x="299.59" y="-98.9" font-family="Times,serif" font-size="14.00">annotation:GET_GFF</text>
</g>
<!-- p7&#45;&gt;p8 -->
<g id="edge9" class="edge">
<title>p7&#45;&gt;p8</title>
<path fill="none" stroke="black" d="M299.59,-157.41C299.59,-149.39 299.59,-139.65 299.59,-130.67"/>
<polygon fill="black" stroke="black" points="303.09,-130.63 299.59,-120.63 296.09,-130.63 303.09,-130.63"/>
</g>
<!-- p5 -->
<g id="node7" class="node">
<title>p5</title>
<ellipse fill="black" stroke="black" cx="299.59" cy="-248.2" rx="3.6" ry="3.6"/>
</g>
<!-- p5&#45;&gt;p7 -->
<g id="edge7" class="edge">
<title>p5&#45;&gt;p7</title>
<path fill="none" stroke="black" d="M299.59,-244.52C299.59,-237.85 299.59,-219.9 299.59,-204.13"/>
<polygon fill="black" stroke="black" points="303.09,-203.73 299.59,-193.73 296.09,-203.73 303.09,-203.73"/>
<text text-anchor="middle" x="315.59" y="-215.4" font-family="Times,serif" font-size="14.00">args</text>
</g>
<!-- p6 -->
<g id="node8" class="node">
<title>p6</title>
<ellipse fill="black" stroke="black" cx="354.59" cy="-248.2" rx="3.6" ry="3.6"/>
</g>
<!-- p6&#45;&gt;p7 -->
<g id="edge8" class="edge">
<title>p6&#45;&gt;p7</title>
<path fill="none" stroke="black" d="M353.16,-244.49C349.89,-238.37 341.44,-223.13 332.59,-211.6 329.82,-208 326.75,-204.35 323.61,-200.84"/>
<polygon fill="black" stroke="black" points="326.12,-198.4 316.76,-193.43 320.98,-203.15 326.12,-198.4"/>
<text text-anchor="middle" x="356.59" y="-215.4" font-family="Times,serif" font-size="14.00">first</text>
</g>
<!-- p10 -->
<g id="node10" class="node">
<title>p10</title>
<ellipse fill="none" stroke="black" cx="287.59" cy="-44.1" rx="3.5" ry="3.5"/>
<text text-anchor="middle" x="267.09" y="-51.4" font-family="Times,serif" font-size="14.00">view</text>
</g>
<!-- p8&#45;&gt;p10 -->
<g id="edge10" class="edge">
<title>p8&#45;&gt;p10</title>
<path fill="none" stroke="black" d="M295.92,-84.34C294.1,-75.76 291.93,-65.57 290.27,-57.72"/>
<polygon fill="black" stroke="black" points="293.63,-56.72 288.13,-47.66 286.78,-58.17 293.63,-56.72"/>
</g>
<!-- p9 -->
<g id="node11" class="node">
<title>p9</title>
<ellipse fill="black" stroke="black" cx="312.59" cy="-44.1" rx="1.8" ry="1.8"/>
</g>
<!-- p8&#45;&gt;p9 -->
<g id="edge11" class="edge">
<title>p8&#45;&gt;p9</title>
<path fill="none" stroke="black" d="M303.56,-84.34C305.68,-75.14 308.22,-64.1 310.06,-56.07"/>
<polygon fill="black" stroke="black" points="313.52,-56.63 312.36,-46.1 306.7,-55.07 313.52,-56.63"/>
</g>
<!-- p11 -->
<g id="node12" class="node">
<title>p11</title>
<ellipse fill="black" stroke="black" cx="287.59" cy="-1.8" rx="1.8" ry="1.8"/>
</g>
<!-- p10&#45;&gt;p11 -->
<g id="edge12" class="edge">
<title>p10&#45;&gt;p11</title>
<path fill="none" stroke="black" d="M287.59,-40.46C287.59,-35.25 287.59,-23.38 287.59,-14.35"/>
<polygon fill="black" stroke="black" points="291.09,-14.05 287.59,-4.05 284.09,-14.05 291.09,-14.05"/>
</g>
</g>
</svg>
